<svg xmlns="http://www.w3.org/2000/svg" xmlns:xlink="http://www.w3.org/1999/xlink" version="1.1" id="Layer_1" x="0px" y="0px" width="100px" height="94.1798941799px" viewBox="0 0 189 178" enable-background="new 0 0 189 178" xml:space="preserve">
<g>
	<circle fill="none" cx="68.881" cy="69.917" r="3.237"/>
	<circle fill="none" cx="82.275" cy="67.951" r="3.237"/>
	<circle fill="none" cx="114.024" cy="68.194" r="3.237"/>
	<path fill="none" d="M118.817,87.34c6.249,0.658,11.713-2.583,12.203-7.237l-22.635-2.38   C107.896,82.377,112.566,86.684,118.817,87.34z"/>
	<circle fill="none" cx="127.488" cy="69.61" r="3.237"/>
	<circle fill="none" cx="82.275" cy="67.951" r="3.237"/>
	<circle fill="none" cx="68.881" cy="69.917" r="3.237"/>
	<path fill="none" d="M118.817,87.34c6.249,0.658,11.713-2.583,12.203-7.237l-22.635-2.38   C107.896,82.377,112.566,86.684,118.817,87.34z"/>
	<circle fill="none" cx="127.488" cy="69.61" r="3.237"/>
	<circle fill="none" cx="114.024" cy="68.194" r="3.237"/>
	<path d="M79.779,86.969c-0.491,0.124-0.991,0.233-1.508,0.309c-6.218,0.913-11.81-2.101-12.489-6.731l22.517-3.306   c0.286,1.945-0.351,3.863-1.635,5.505c2.745-1.152,5.722-1.853,8.839-2.018c0.781-2.658,1.024-5.518,0.596-8.438   c-1.59-10.828-11.657-18.316-22.484-16.727c-10.827,1.59-18.316,11.656-16.726,22.484c1.295,8.821,8.217,15.422,16.592,16.708   C75.075,91.772,77.22,89.134,79.779,86.969z M81.804,64.748c1.769-0.26,3.413,0.964,3.673,2.732s-0.963,3.413-2.732,3.673   c-1.769,0.26-3.414-0.963-3.673-2.732C78.812,66.652,80.035,65.008,81.804,64.748z M68.411,66.715   c1.769-0.26,3.413,0.964,3.672,2.732c0.26,1.769-0.963,3.413-2.732,3.673c-1.77,0.26-3.413-0.963-3.673-2.732   C65.418,68.619,66.642,66.974,68.411,66.715z"/>
	<path d="M122.169,55.462c-10.884-1.145-20.634,6.751-21.779,17.634c-0.29,2.756,0.009,5.437,0.78,7.926   c8.441,1.35,15.538,6.661,19.35,13.95c9.84-0.198,18.228-7.688,19.283-17.731C140.948,66.357,133.053,56.606,122.169,55.462z    M124.269,69.271c0.188-1.778,1.779-3.068,3.558-2.881c1.777,0.187,3.066,1.779,2.881,3.558c-0.188,1.778-1.779,3.067-3.558,2.881   S124.081,71.049,124.269,69.271z M110.805,67.855c0.188-1.778,1.781-3.068,3.559-2.881c1.778,0.187,3.067,1.78,2.881,3.558   c-0.188,1.778-1.78,3.068-3.559,2.88C111.907,71.226,110.619,69.633,110.805,67.855z M118.817,87.34   c-6.251-0.657-10.921-4.963-10.432-9.617l22.635,2.38C130.53,84.757,125.066,87.998,118.817,87.34z"/>
	<path d="M96.515,130.559c12.856,0.166,23.414-10.122,23.581-22.979c0.167-12.857-10.122-23.415-22.979-23.582   s-23.416,10.121-23.582,22.978C73.368,119.834,83.657,130.392,96.515,130.559z M104.913,96.175c2.1,0.027,3.779,1.752,3.754,3.853   c-0.027,2.1-1.752,3.781-3.853,3.754c-2.1-0.027-3.782-1.752-3.753-3.852C101.089,97.828,102.812,96.148,104.913,96.175z    M110.126,111.875c-0.07,5.498-6.114,9.877-13.497,9.781c-7.384-0.095-13.312-4.63-13.24-10.128L110.126,111.875z M89.009,95.969   c2.1,0.027,3.78,1.752,3.753,3.853c-0.027,2.101-1.751,3.781-3.852,3.753c-2.102-0.027-3.781-1.752-3.754-3.852   C85.183,97.622,86.909,95.941,89.009,95.969z"/>
</g>
</svg>