<?xml version="1.0" encoding="utf-8"?>
<!-- Generator: Adobe Illustrator 15.1.0, SVG Export Plug-In . SVG Version: 6.00 Build 0)  -->
<!DOCTYPE svg PUBLIC "-//W3C//DTD SVG 1.1//EN" "http://www.w3.org/Graphics/SVG/1.1/DTD/svg11.dtd">
<svg version="1.1" id="Layer_1" xmlns="http://www.w3.org/2000/svg" xmlns:xlink="http://www.w3.org/1999/xlink" x="0px" y="0px"
	 width="100px" height="63.435px" viewBox="0.257 21.123 100 63.435" enable-background="new 0.257 21.123 100 63.435"
	 xml:space="preserve">
<g>
	<path fill="#231F20" d="M75.999,48.169l1.444-0.04c-0.476-0.018-0.953-0.042-1.433-0.072
		C76.007,48.097,76.001,48.132,75.999,48.169z"/>
	<path fill="#231F20" d="M100.257,36.279c0-0.667,0-2.22-19.365-12.087c0-0.03,0-0.06,0-0.09c0-1.81-0.679-2.979-1.731-2.979
		s-1.733,1.169-1.733,2.979c0,0.03,0,0.06,0,0.089c-19.364,9.868-19.364,11.42-19.364,12.087c0,0.428,0.005,1.682,3.974,3.069
		c-0.145,5.421,0.017,6.34,0.071,6.647l0.089,0.489l1.508,0.806l0.239,0.092c2.005,0.493,7.037,1.39,12.002,1.7l0.993,0.062
		l0.092-0.989c0.001-0.016,0.004-0.028,0.007-0.044c0.123,0.005,0.248,0.014,0.371,0.019l-0.006,1.026
		c0.621,0.023,1.238,0.041,1.842,0.041c1.247,0,2.689-0.076,4.192-0.202l0.011-0.001c5.562-0.467,11.965-1.62,12.515-2.172
		c0.394-0.388,0.43-0.446,0.356-7.486C100.251,37.954,100.257,36.705,100.257,36.279z M75.113,46.969
		c-4.405-0.339-8.68-1.098-10.557-1.547l-0.479-0.257c-0.045-0.668-0.081-2.107-0.006-5.195c0.07,0.019,0.146,0.035,0.217,0.053
		c0.17,0.044,0.347,0.085,0.521,0.127c0.379,0.093,0.763,0.182,1.16,0.267c0.198,0.042,0.398,0.083,0.601,0.124
		c0.401,0.08,0.811,0.155,1.228,0.227c0.2,0.035,0.398,0.07,0.602,0.103c0.485,0.078,0.979,0.149,1.481,0.216
		c0.143,0.019,0.281,0.041,0.424,0.058c0.649,0.082,1.311,0.155,1.984,0.219c0.154,0.014,0.312,0.025,0.467,0.039
		c0.52,0.045,1.043,0.087,1.573,0.122c0.247,0.016,0.497,0.028,0.747,0.042c0.448,0.024,0.899,0.045,1.354,0.062
		c0.272,0.01,0.546,0.019,0.82,0.025c0.172,0.004,0.343,0.013,0.516,0.016C76.49,42.477,75.516,44.39,75.113,46.969z M94.273,45.299
		c-1.627,0.377-6.314,1.286-11.05,1.67c-0.404-2.579-1.382-4.493-2.658-5.299c0.177-0.003,0.351-0.012,0.528-0.016
		c0.268-0.007,0.534-0.016,0.801-0.025c0.462-0.017,0.919-0.039,1.376-0.063c0.248-0.014,0.497-0.026,0.744-0.042
		c0.528-0.035,1.05-0.076,1.567-0.122c0.161-0.014,0.323-0.025,0.481-0.04c0.671-0.063,1.328-0.137,1.974-0.219
		c0.168-0.021,0.329-0.046,0.494-0.068c0.479-0.065,0.95-0.132,1.41-0.207c0.22-0.036,0.434-0.074,0.648-0.111
		c0.4-0.07,0.792-0.142,1.177-0.219c0.218-0.043,0.432-0.087,0.644-0.132c0.384-0.083,0.753-0.169,1.118-0.259
		c0.187-0.046,0.374-0.089,0.556-0.136c0.062-0.017,0.129-0.031,0.19-0.047C94.301,43.114,94.291,44.601,94.273,45.299z"/>
	<path fill="#231F20" d="M18.193,48.214l1.445-0.04c-0.476-0.018-0.954-0.043-1.432-0.072
		C18.201,48.142,18.196,48.177,18.193,48.214z"/>
	<path fill="#231F20" d="M42.452,36.324c0-0.667-0.001-2.221-19.367-12.087c0-0.03,0.001-0.059,0.001-0.089
		c0-1.81-0.68-2.98-1.731-2.98c-1.053,0-1.733,1.17-1.733,2.98c0,0.03,0,0.06,0.001,0.089C0.258,34.104,0.257,35.657,0.257,36.324
		c0,0.427,0.005,1.681,3.973,3.069c-0.188,6.948,0.061,7.164,0.541,7.538c0.782,0.612,7.828,1.851,13.37,2.196l0.992,0.062
		l0.092-0.989c0.001-0.016,0.004-0.029,0.006-0.044c0.124,0.006,0.249,0.014,0.373,0.019L19.599,49.2
		c0.62,0.023,1.237,0.041,1.841,0.041c1.246,0,2.687-0.076,4.19-0.202l0.014-0.001c5.554-0.466,11.956-1.617,12.52-2.176
		c0.384-0.384,0.427-0.449,0.353-7.482C42.446,37.999,42.452,36.75,42.452,36.324z M17.308,47.014
		C12.306,46.63,7.689,45.73,6.28,45.35c-0.046-0.574-0.095-1.974-0.015-5.334c0.073,0.02,0.154,0.037,0.229,0.056
		c0.157,0.041,0.321,0.078,0.482,0.118c0.393,0.097,0.793,0.19,1.207,0.278c0.185,0.039,0.371,0.077,0.559,0.115
		c0.421,0.084,0.851,0.163,1.289,0.238c0.18,0.031,0.358,0.063,0.541,0.092c0.523,0.084,1.057,0.162,1.601,0.233
		c0.103,0.014,0.202,0.029,0.305,0.042c0.666,0.084,1.344,0.159,2.035,0.224c0.096,0.009,0.194,0.015,0.289,0.024
		c0.582,0.052,1.17,0.098,1.767,0.137c0.204,0.013,0.408,0.023,0.613,0.035c0.5,0.028,1.003,0.051,1.51,0.069
		c0.229,0.008,0.458,0.016,0.689,0.022c0.194,0.005,0.385,0.014,0.58,0.018C18.685,42.523,17.711,44.435,17.308,47.014z
		 M36.47,45.345c-1.629,0.376-6.318,1.286-11.05,1.669c-0.404-2.578-1.382-4.491-2.657-5.298c0.199-0.004,0.396-0.013,0.594-0.019
		c0.221-0.006,0.44-0.013,0.661-0.021c0.522-0.018,1.039-0.042,1.553-0.071c0.196-0.011,0.392-0.021,0.587-0.033
		c0.617-0.04,1.227-0.087,1.828-0.143c0.079-0.007,0.159-0.012,0.236-0.019c0.697-0.066,1.38-0.142,2.05-0.227
		c0.104-0.014,0.204-0.029,0.306-0.043c0.545-0.072,1.08-0.149,1.604-0.234c0.182-0.029,0.36-0.062,0.54-0.092
		c0.44-0.076,0.871-0.156,1.292-0.241c0.188-0.038,0.373-0.075,0.556-0.114c0.42-0.09,0.827-0.185,1.226-0.284
		c0.153-0.038,0.311-0.074,0.46-0.113c0.071-0.019,0.147-0.035,0.216-0.053C36.5,43.173,36.488,44.653,36.47,45.345z"/>
	<path fill="#231F20" d="M63.21,46.079c0.082,0.065,0.434,0.174,0.979,0.308c-0.359-0.192-0.719-0.385-1.071-0.573
		C63.143,45.958,63.173,46.05,63.21,46.079z"/>
	<path fill="#231F20" d="M45.07,82.688l2.551-0.069c-0.839-0.031-1.684-0.074-2.53-0.128C45.085,82.558,45.075,82.621,45.07,82.688z
		"/>
	<path fill="#231F20" d="M89.337,60.99c0-1.53,0-3.267-24.264-16.251c-0.138-0.074-0.285-0.13-0.437-0.167
		c-0.055-0.014-0.107-0.027-0.157-0.04c-0.139-0.147-0.301-0.272-0.483-0.37c-4.401-2.344-8.2-4.305-9.998-5.227
		c0.001-0.055,0.001-0.11,0.001-0.166c0-3.303-1.239-5.437-3.157-5.437c-1.922,0-3.163,2.134-3.163,5.437
		c0,0.055,0,0.11,0.001,0.166c-2.659,1.364-9.694,5-16.657,8.828c-18.68,10.268-18.68,11.772-18.68,13.225
		c0,0.781,0.009,3.067,7.248,5.601c-0.346,12.715,0.111,13.073,0.985,13.753c1.428,1.121,14.288,3.387,24.4,4.015l1.81,0.113
		l0.168-1.806c0.002-0.027,0.006-0.052,0.009-0.08c0.199,0.01,0.399,0.023,0.598,0.031l-0.01,1.872
		c1.163,0.044,2.314,0.069,3.443,0.069c2.26,0,4.873-0.136,7.601-0.364l0.073-0.002l-0.001-0.004
		c10.134-0.851,21.814-2.949,22.842-3.967c0.702-0.698,0.78-0.779,0.648-13.655C89.326,64.045,89.337,61.768,89.337,60.99z
		 M43.453,80.502c-9.125-0.7-17.551-2.346-20.122-3.041c-0.085-1.048-0.175-3.602-0.027-9.734c0.075,0.021,0.157,0.036,0.232,0.057
		c0.744,0.195,1.507,0.384,2.295,0.562c0.136,0.031,0.277,0.06,0.415,0.09c0.767,0.17,1.551,0.332,2.354,0.484
		c0.091,0.018,0.179,0.035,0.27,0.052c0.863,0.162,1.749,0.311,2.649,0.451c0.167,0.026,0.333,0.052,0.5,0.077
		c0.911,0.14,1.837,0.269,2.781,0.387c0.095,0.013,0.191,0.022,0.285,0.034c0.949,0.116,1.913,0.222,2.89,0.317
		c0.066,0.007,0.131,0.014,0.197,0.021c1.011,0.097,2.038,0.18,3.074,0.253c0.128,0.01,0.257,0.019,0.386,0.027
		c1.056,0.071,2.12,0.134,3.195,0.181c0.011,0.001,0.021,0.001,0.032,0.001c1.111,0.049,2.231,0.083,3.358,0.104
		c0.026,0,0.052,0.001,0.079,0.002C45.968,72.298,44.188,75.79,43.453,80.502z M78.423,77.448
		c-2.976,0.688-11.532,2.347-20.167,3.047c-0.739-4.706-2.526-8.197-4.854-9.669c0.038-0.001,0.075-0.003,0.114-0.003
		c1.116-0.022,2.228-0.056,3.328-0.104c0.012,0,0.021,0,0.032-0.001c1.083-0.048,2.156-0.11,3.22-0.184
		c0.116-0.007,0.233-0.015,0.35-0.024c1.057-0.074,2.101-0.159,3.13-0.259c0.029-0.002,0.057-0.005,0.084-0.009
		c1.031-0.101,2.049-0.212,3.049-0.336c0.06-0.007,0.12-0.015,0.179-0.021c0.979-0.122,1.939-0.257,2.883-0.401
		c0.125-0.02,0.249-0.039,0.373-0.059c0.944-0.148,1.874-0.305,2.777-0.475c0.015-0.003,0.029-0.006,0.045-0.009
		c0.898-0.17,1.771-0.351,2.624-0.541c0.087-0.02,0.175-0.038,0.262-0.057c0.835-0.189,1.645-0.39,2.431-0.598
		c0.047-0.013,0.098-0.023,0.145-0.036C78.476,73.488,78.454,76.188,78.423,77.448z"/>
</g>
</svg>
